<?xml version="1.0" standalone="no"?>
<!DOCTYPE svg PUBLIC "-//W3C//DTD SVG 20010904//EN"
 "http://www.w3.org/TR/2001/REC-SVG-20010904/DTD/svg10.dtd">
<svg version="1.0" xmlns="http://www.w3.org/2000/svg"
 width="1024.000000pt" height="1024.000000pt" viewBox="0 0 1024.000000 1024.000000"
 preserveAspectRatio="xMidYMid meet">

<g transform="translate(0.000000,1024.000000) scale(0.100000,-0.100000)"
fill="#000000" stroke="none">
<path d="M5065 10232 c-15 -13 -254 -32 -403 -32 -95 0 -143 -4 -165 -14 -18
-8 -73 -16 -123 -18 -66 -3 -99 -9 -118 -22 -17 -10 -55 -19 -99 -23 -40 -2
-86 -11 -104 -19 -17 -8 -55 -14 -85 -14 -35 0 -64 -7 -86 -20 -18 -11 -50
-20 -71 -20 -22 0 -44 -6 -51 -15 -7 -9 -29 -15 -52 -15 -22 0 -54 -6 -71 -14
-18 -8 -48 -17 -69 -20 -20 -4 -38 -13 -41 -20 -3 -7 -26 -16 -52 -19 -26 -2
-51 -10 -55 -16 -3 -7 -24 -14 -46 -18 -21 -3 -51 -14 -66 -24 -14 -11 -35
-19 -46 -19 -11 0 -25 -7 -32 -15 -7 -8 -27 -15 -45 -15 -18 0 -38 -7 -45 -15
-7 -8 -25 -15 -40 -15 -15 0 -39 -9 -53 -20 -14 -11 -31 -20 -37 -20 -7 0 -24
-6 -38 -13 -15 -8 -45 -22 -67 -32 -22 -11 -54 -29 -72 -42 -17 -13 -38 -23
-45 -23 -8 0 -23 -7 -34 -15 -10 -8 -26 -15 -35 -15 -9 0 -24 -9 -34 -20 -10
-11 -24 -20 -31 -20 -7 0 -19 -6 -26 -14 -8 -7 -25 -17 -38 -21 -14 -4 -34
-15 -45 -25 -11 -10 -36 -26 -55 -36 -44 -24 -104 -66 -108 -76 -2 -4 -12 -8
-23 -8 -11 0 -22 -7 -25 -15 -4 -8 -12 -15 -20 -15 -7 0 -26 -11 -41 -25 -47
-41 -52 -45 -62 -45 -5 0 -41 -25 -79 -55 -39 -30 -75 -55 -79 -55 -5 0 -19
-10 -31 -22 -27 -30 -49 -48 -58 -48 -6 0 -105 -80 -124 -100 -3 -3 -34 -30
-70 -60 -144 -121 -565 -551 -578 -591 -2 -5 -19 -25 -38 -43 -19 -18 -34 -38
-34 -44 0 -7 -9 -17 -20 -24 -11 -7 -20 -18 -20 -24 0 -7 -7 -14 -15 -18 -8
-3 -15 -12 -15 -20 0 -8 -18 -34 -40 -58 -22 -24 -40 -47 -40 -52 0 -5 -21
-34 -46 -65 -26 -31 -53 -69 -61 -86 -7 -16 -21 -42 -31 -56 -38 -58 -57 -84
-63 -89 -4 -3 -11 -18 -14 -33 -4 -15 -11 -27 -16 -27 -5 0 -9 -7 -9 -15 0 -8
-4 -15 -9 -15 -5 0 -18 -20 -30 -44 -11 -25 -25 -47 -31 -51 -5 -3 -10 -16
-10 -28 0 -12 -9 -28 -20 -35 -11 -7 -20 -20 -20 -30 0 -10 -7 -27 -15 -38 -8
-10 -15 -26 -15 -35 0 -9 -6 -22 -14 -28 -17 -15 -66 -113 -66 -133 0 -9 -7
-21 -15 -28 -8 -7 -15 -22 -15 -34 0 -12 -9 -27 -20 -34 -12 -7 -20 -23 -20
-41 0 -16 -7 -34 -15 -41 -8 -7 -15 -27 -15 -46 0 -23 -6 -37 -19 -44 -13 -6
-17 -17 -14 -29 3 -11 -4 -33 -16 -50 -12 -16 -24 -44 -27 -63 -4 -18 -10 -38
-15 -43 -4 -6 -11 -31 -15 -55 -4 -26 -15 -51 -26 -58 -13 -9 -18 -26 -18 -56
0 -23 -7 -51 -15 -62 -8 -10 -15 -38 -15 -61 0 -26 -7 -48 -17 -59 -11 -10
-16 -29 -14 -47 3 -27 -3 -47 -30 -99 -5 -10 -9 -37 -9 -60 0 -24 -6 -55 -14
-69 -8 -15 -17 -64 -21 -110 -5 -57 -12 -87 -23 -95 -11 -8 -17 -40 -21 -125
-4 -63 -11 -121 -16 -129 -6 -8 -13 -91 -17 -185 -8 -222 -19 -345 -29 -345
-5 0 -9 -45 -9 -100 0 -65 4 -100 11 -100 7 0 10 -21 7 -60 -1 -33 1 -61 6
-63 5 -2 11 -91 14 -198 3 -137 8 -202 18 -221 8 -16 14 -59 14 -105 0 -79 14
-153 29 -153 5 0 12 -34 16 -76 4 -42 13 -91 21 -110 8 -18 14 -51 14 -73 0
-22 9 -57 21 -77 13 -24 19 -51 17 -76 -2 -29 2 -42 15 -49 12 -7 17 -23 17
-57 0 -27 5 -53 11 -59 7 -7 16 -36 20 -65 5 -29 15 -58 24 -64 8 -6 15 -22
15 -35 0 -13 7 -37 15 -53 8 -15 15 -38 15 -50 0 -12 12 -39 26 -60 17 -24 24
-47 21 -62 -3 -17 1 -28 14 -35 12 -6 19 -21 19 -38 0 -16 7 -34 15 -41 8 -7
15 -25 15 -41 0 -18 8 -34 20 -41 12 -8 20 -24 20 -39 0 -15 6 -32 14 -38 8
-7 17 -26 20 -44 3 -18 15 -39 26 -47 11 -8 20 -24 20 -36 0 -12 7 -27 15 -34
8 -7 15 -20 15 -29 0 -9 7 -25 15 -35 8 -11 15 -28 15 -38 0 -58 36 -27 471
408 241 241 439 443 439 448 0 4 -10 21 -23 36 -45 57 -57 74 -57 85 -1 14
-36 55 -48 55 -6 0 -15 12 -21 28 -14 33 -32 64 -51 87 -15 18 -31 45 -52 85
-7 14 -21 34 -30 44 -10 10 -15 22 -13 26 3 4 -4 15 -15 25 -11 10 -20 26 -20
36 0 10 -4 21 -10 24 -5 3 -14 24 -20 46 -6 22 -18 43 -26 46 -7 3 -14 15 -14
27 0 12 -7 31 -15 42 -8 10 -15 33 -15 50 0 16 -7 39 -15 50 -8 10 -15 29 -15
42 0 12 -4 22 -10 22 -5 0 -10 10 -10 23 -1 12 -7 33 -15 47 -8 14 -14 44 -15
66 0 23 -7 55 -15 70 -8 16 -15 54 -15 84 0 33 -7 67 -17 85 -12 22 -19 73
-26 200 -11 210 -11 228 -2 445 6 142 11 182 26 213 11 21 19 58 19 86 0 27 7
65 15 84 8 20 15 53 15 74 0 21 7 51 15 67 8 15 15 35 15 43 0 8 9 27 19 42
11 15 23 44 27 65 4 22 13 51 20 65 8 14 14 35 14 47 0 11 9 29 20 39 11 10
20 26 20 35 0 10 7 23 15 30 8 7 15 22 15 34 0 12 9 32 19 43 11 12 17 24 14
27 -4 3 3 16 14 29 12 12 31 42 44 67 13 25 31 51 41 58 10 7 18 20 18 28 0
12 63 102 120 171 6 7 10 15 10 19 0 3 10 14 23 24 13 10 32 34 42 54 11 20
24 36 29 36 10 0 56 47 56 58 1 13 35 48 53 55 9 3 17 11 17 17 0 10 36 50 45
50 14 0 65 45 65 57 0 7 6 13 13 13 6 0 26 13 42 28 66 62 235 192 249 192 8
0 19 6 23 14 4 7 32 26 61 42 85 46 91 50 110 67 10 10 22 17 26 17 8 0 103
45 126 60 25 16 108 50 123 50 7 0 22 7 33 15 10 8 33 15 49 15 17 0 41 9 55
20 14 11 35 20 48 20 12 0 39 7 59 15 19 8 49 15 66 15 17 0 49 9 71 19 23 11
79 25 126 31 47 6 110 15 140 20 30 5 114 9 185 9 101 0 134 -3 150 -15 19
-14 20 -28 23 -237 4 -291 9 -281 -144 -291 -60 -3 -136 -11 -169 -16 -33 -5
-81 -10 -108 -10 -26 0 -66 -9 -90 -19 -23 -10 -55 -22 -72 -25 -16 -3 -61
-15 -100 -27 -38 -11 -90 -25 -114 -31 -23 -5 -52 -19 -62 -29 -10 -10 -28
-19 -38 -19 -11 0 -22 -4 -25 -9 -3 -4 -27 -16 -53 -26 -26 -10 -50 -21 -53
-25 -3 -4 -23 -17 -45 -29 -45 -24 -72 -41 -139 -88 -26 -18 -49 -33 -52 -33
-6 0 -51 -41 -113 -102 -21 -21 -42 -38 -46 -38 -10 0 -138 -131 -205 -209
-25 -29 -56 -65 -70 -79 -14 -15 -41 -49 -60 -77 -18 -27 -46 -68 -60 -90 -15
-22 -31 -50 -34 -63 -4 -12 -16 -27 -27 -33 -12 -6 -18 -17 -15 -24 2 -7 -1
-19 -9 -25 -8 -6 -19 -28 -26 -48 -6 -20 -15 -41 -19 -47 -4 -5 -10 -22 -14
-37 -3 -16 -13 -28 -21 -28 -10 0 -15 -10 -15 -30 0 -17 -7 -44 -15 -59 -8
-16 -17 -47 -21 -69 -3 -23 -12 -43 -19 -46 -8 -3 -11 -13 -8 -25 3 -12 1 -21
-6 -21 -6 0 -11 -18 -11 -43 0 -24 -5 -48 -12 -55 -6 -6 -14 -63 -18 -129 -4
-65 -13 -156 -20 -203 -10 -67 -10 -106 0 -185 6 -55 15 -149 19 -208 5 -59
13 -113 19 -119 7 -7 12 -28 12 -48 0 -20 4 -40 8 -45 10 -12 28 -68 37 -115
4 -19 14 -44 21 -55 8 -11 14 -34 14 -51 0 -18 8 -38 20 -49 11 -10 20 -26 20
-35 0 -9 7 -25 15 -36 8 -10 15 -28 15 -40 0 -11 9 -29 19 -38 11 -10 18 -23
15 -30 -3 -7 5 -21 16 -31 12 -11 32 -43 46 -73 13 -29 31 -55 39 -58 8 -4 15
-14 15 -23 0 -9 14 -32 31 -51 17 -19 39 -46 49 -60 l19 -25 1508 1506 c829
829 1518 1510 1531 1514 12 3 22 12 22 20 0 7 15 23 33 34 19 11 45 33 58 48
13 16 36 35 52 42 15 8 27 18 27 23 0 4 5 8 11 8 6 0 36 21 67 46 31 26 64 49
72 52 8 3 26 16 40 29 14 13 33 23 42 23 10 0 39 15 65 33 27 19 55 37 63 40
8 4 22 11 30 16 8 5 26 14 40 20 14 6 32 15 40 20 43 27 104 51 128 51 15 0
36 7 46 15 11 8 32 15 48 15 15 0 28 4 28 10 0 5 17 14 38 19 86 23 130 33
182 42 30 6 61 16 70 24 14 13 46 17 320 45 109 11 360 11 470 0 192 -19 295
-33 300 -40 8 -11 70 -30 100 -30 15 0 44 -7 63 -15 20 -8 48 -15 63 -15 14 0
38 -8 52 -19 15 -10 38 -21 52 -24 76 -18 209 -64 226 -78 18 -14 104 -59 115
-59 5 0 43 -22 85 -50 41 -27 81 -50 89 -50 7 0 15 -7 19 -15 3 -8 18 -21 33
-28 15 -6 33 -15 38 -20 57 -45 181 -137 186 -137 4 0 223 215 486 478 l479
478 -13 32 c-7 18 -18 32 -23 32 -6 0 -10 6 -10 13 0 7 -10 23 -22 34 -31 29
-58 65 -58 79 0 6 -12 22 -28 35 -15 13 -41 44 -57 68 -16 24 -35 45 -42 48
-7 3 -13 11 -13 18 0 47 -714 739 -776 753 -8 2 -14 7 -14 12 0 5 -9 12 -20
15 -11 3 -20 12 -20 20 0 7 -12 17 -27 23 -16 5 -41 22 -58 38 -31 29 -50 43
-95 66 -29 15 -35 19 -73 53 -15 14 -33 25 -39 25 -5 0 -29 15 -51 33 -45 35
-53 40 -121 76 -26 14 -54 33 -63 43 -9 10 -24 18 -33 18 -9 0 -27 9 -40 20
-13 11 -28 20 -35 20 -7 0 -20 9 -30 20 -10 11 -24 20 -31 20 -11 0 -50 17
-94 42 -8 4 -24 12 -35 17 -11 6 -33 19 -50 30 -16 12 -40 21 -51 21 -12 0
-27 7 -34 15 -7 8 -25 15 -41 15 -19 0 -29 5 -29 15 0 8 -12 17 -27 20 -16 4
-40 13 -55 21 -14 8 -35 14 -45 14 -11 0 -28 7 -39 15 -10 8 -31 15 -45 15
-14 0 -34 9 -44 20 -10 11 -31 20 -47 20 -15 0 -45 9 -65 20 -21 11 -50 20
-66 20 -15 0 -30 7 -33 15 -3 8 -26 17 -51 21 -25 4 -58 13 -72 20 -14 8 -45
14 -67 14 -25 0 -47 6 -54 15 -8 9 -30 15 -58 15 -28 0 -52 6 -63 16 -12 10
-47 19 -94 24 -41 4 -80 12 -87 17 -7 6 -49 13 -93 17 -51 5 -86 13 -98 23
-12 12 -46 18 -120 22 -56 4 -112 12 -124 19 -14 8 -68 12 -155 12 -151 0
-374 17 -400 31 -22 11 -111 12 -123 1z"/>
<path d="M9170 7115 l-439 -438 62 -80 c34 -44 67 -87 72 -96 6 -9 13 -18 16
-21 3 -3 14 -22 24 -42 9 -21 21 -38 26 -38 5 0 9 -5 9 -11 0 -6 14 -31 30
-56 17 -24 30 -51 30 -59 0 -7 5 -14 11 -14 5 0 7 -5 4 -10 -3 -6 1 -13 9 -16
9 -3 16 -12 16 -20 0 -8 9 -31 20 -51 11 -21 20 -46 20 -55 0 -10 9 -23 20
-30 11 -7 20 -20 20 -28 0 -8 7 -28 15 -44 8 -15 15 -40 15 -55 0 -15 7 -36
15 -47 8 -10 15 -29 15 -41 0 -12 5 -25 11 -28 6 -4 8 -13 5 -20 -2 -7 2 -16
10 -19 8 -3 14 -19 14 -39 0 -19 7 -54 15 -78 9 -24 18 -71 22 -104 3 -33 12
-71 20 -84 17 -26 38 -294 37 -481 0 -150 -15 -390 -24 -390 -4 0 -5 -11 -3
-24 3 -13 -2 -34 -10 -47 -8 -13 -18 -55 -22 -94 -4 -38 -13 -82 -21 -97 -8
-15 -14 -43 -14 -64 0 -20 -8 -53 -19 -73 -22 -43 -39 -92 -52 -146 -6 -22
-14 -44 -20 -50 -5 -5 -9 -17 -9 -27 0 -10 -9 -27 -20 -38 -11 -11 -20 -26
-20 -33 0 -7 -7 -22 -15 -33 -8 -10 -15 -27 -15 -36 0 -10 -9 -27 -20 -38 -11
-11 -18 -20 -15 -20 3 0 -5 -17 -18 -37 -13 -21 -27 -48 -31 -60 -4 -13 -12
-23 -17 -23 -5 0 -9 -7 -9 -15 0 -8 -4 -15 -9 -15 -5 0 -17 -17 -26 -37 -10
-21 -23 -43 -29 -49 -6 -7 -19 -23 -28 -36 -37 -49 -113 -144 -130 -162 -10
-11 -20 -28 -23 -37 -3 -10 -14 -20 -23 -23 -9 -3 -30 -26 -45 -51 -16 -25
-36 -45 -45 -45 -8 0 -13 -3 -9 -6 6 -6 -75 -94 -87 -94 -4 0 -36 -29 -72 -65
-36 -36 -74 -70 -86 -76 -19 -10 -148 -108 -188 -142 -27 -23 -69 -47 -83 -47
-8 0 -21 -7 -28 -16 -7 -9 -22 -20 -34 -25 -11 -5 -40 -22 -65 -38 -25 -16
-54 -30 -66 -30 -11 -1 -29 -10 -39 -21 -10 -11 -25 -20 -34 -20 -9 0 -29 -9
-46 -20 -16 -11 -37 -20 -46 -20 -9 0 -30 -7 -45 -15 -16 -8 -37 -15 -47 -15
-10 0 -27 -9 -38 -19 -11 -10 -37 -21 -57 -24 -21 -3 -55 -10 -77 -16 -22 -6
-57 -13 -77 -16 -21 -3 -43 -12 -50 -19 -7 -7 -41 -16 -75 -19 -33 -4 -72 -11
-84 -16 -37 -15 -437 -33 -460 -21 -18 10 -19 22 -17 253 l3 242 25 3 c14 2
34 7 45 12 26 12 183 30 258 30 32 0 70 6 85 14 15 7 59 16 97 19 42 4 74 12
80 21 6 7 28 16 50 18 38 5 102 25 172 55 17 7 35 13 40 13 4 0 19 9 33 20 14
11 32 20 41 20 9 0 22 7 29 15 7 8 23 15 36 15 13 0 29 9 36 20 7 11 18 20 25
20 7 0 32 14 56 30 25 17 50 30 57 30 7 0 20 10 30 23 10 13 37 32 59 42 23
11 44 28 47 38 3 9 10 17 16 17 33 0 392 368 424 436 9 19 28 42 40 51 13 8
24 24 24 35 0 11 14 37 30 58 17 21 30 43 30 49 0 6 7 19 16 30 10 11 23 34
29 53 32 84 41 104 58 120 9 10 17 30 17 46 0 15 7 36 15 46 8 11 15 34 15 50
0 17 7 40 15 50 8 11 15 37 15 58 0 20 8 52 18 70 12 21 21 65 26 124 3 50 11
106 16 125 13 45 13 430 0 464 -5 14 -13 71 -16 125 -6 79 -11 104 -26 120
-15 16 -19 32 -16 66 2 24 1 44 -2 44 -8 0 -30 53 -30 74 -1 12 -7 32 -15 46
-8 14 -14 37 -15 51 0 14 -9 34 -20 44 -11 10 -20 24 -20 31 0 20 -75 171 -91
184 -4 3 -19 30 -34 60 -15 30 -42 71 -59 91 -17 20 -42 53 -56 73 -14 19 -29
36 -33 36 -7 0 -2169 -2149 -2226 -2212 -8 -10 -21 -18 -28 -18 -7 0 -13 -4
-13 -9 0 -13 -45 -61 -57 -61 -5 0 -23 -15 -39 -33 -16 -18 -37 -36 -47 -40
-10 -4 -15 -11 -12 -17 3 -5 -1 -10 -10 -10 -8 0 -18 -8 -22 -17 -7 -20 -51
-63 -65 -63 -4 0 -8 -5 -8 -11 0 -13 -46 -59 -59 -59 -5 0 -17 -12 -27 -26
-27 -38 -74 -84 -85 -84 -5 0 -9 -5 -9 -11 0 -13 -46 -59 -59 -59 -5 0 -17
-12 -27 -26 -32 -43 -59 -70 -77 -77 -9 -3 -17 -12 -17 -18 0 -13 -46 -59 -60
-59 -5 0 -21 -16 -36 -35 -14 -19 -41 -44 -60 -56 -19 -11 -34 -27 -34 -34 0
-8 -9 -16 -19 -20 -11 -3 -33 -21 -50 -40 -17 -19 -33 -35 -36 -35 -7 0 -121
-89 -165 -128 -19 -18 -40 -32 -48 -32 -7 0 -24 -11 -38 -25 -14 -14 -33 -25
-44 -25 -10 0 -20 -3 -22 -7 -1 -5 -21 -19 -43 -33 -36 -23 -56 -33 -135 -69
-14 -6 -45 -22 -69 -36 -24 -14 -51 -25 -60 -25 -9 0 -33 -9 -54 -20 -20 -11
-46 -20 -57 -20 -11 0 -29 -9 -40 -20 -11 -11 -33 -20 -49 -20 -16 0 -45 -7
-64 -15 -20 -8 -58 -15 -84 -15 -30 0 -60 -7 -81 -20 -24 -15 -50 -20 -100
-20 -37 0 -92 -7 -122 -15 -78 -21 -539 -21 -625 0 -33 8 -93 14 -132 15 -54
0 -81 5 -105 20 -23 14 -51 20 -89 20 -33 0 -63 6 -75 15 -10 8 -36 15 -56 15
-27 0 -42 6 -50 20 -8 13 -24 20 -43 20 -17 0 -39 6 -50 14 -11 7 -35 17 -53
21 -32 7 -83 28 -112 46 -31 19 -144 69 -158 69 -7 0 -12 4 -12 9 0 5 -21 19
-47 32 -27 12 -71 39 -98 59 -28 21 -60 40 -73 44 -12 4 -22 12 -22 17 0 5 -7
9 -15 9 -9 0 -18 7 -21 15 -3 8 -25 25 -47 39 -23 14 -56 39 -74 55 -18 17
-34 31 -37 31 -2 0 -27 -23 -55 -50 -28 -28 -55 -50 -61 -50 -6 0 -14 -8 -17
-17 -9 -23 -149 -163 -163 -163 -5 0 -10 -4 -10 -10 0 -13 -156 -170 -169
-170 -6 0 -11 -4 -11 -8 0 -13 -56 -72 -68 -72 -7 0 -11 -4 -10 -8 4 -12 -76
-92 -91 -92 -6 0 -11 -4 -11 -9 0 -12 -59 -71 -71 -71 -5 0 -9 -5 -9 -12 0
-13 -147 -158 -161 -158 -5 0 -13 -8 -16 -17 -4 -10 -17 -27 -30 -39 -29 -27
-29 -30 2 -70 14 -18 25 -36 25 -40 0 -4 18 -26 40 -50 22 -24 40 -50 40 -59
0 -8 7 -15 16 -15 11 0 14 -5 10 -16 -4 -10 1 -18 14 -21 10 -3 22 -13 25 -22
3 -10 21 -34 39 -55 19 -20 36 -41 38 -46 15 -46 507 -538 663 -665 27 -21 60
-50 74 -63 14 -13 38 -31 53 -40 16 -9 28 -19 28 -23 0 -4 16 -17 36 -28 20
-12 57 -39 83 -61 26 -22 51 -40 55 -40 4 0 26 -15 49 -32 23 -18 53 -39 66
-46 13 -8 40 -23 60 -34 20 -11 50 -30 66 -42 17 -12 48 -30 70 -41 22 -11 46
-28 53 -38 7 -9 20 -17 28 -17 9 0 27 -9 41 -20 14 -11 31 -20 38 -20 6 0 20
-9 30 -20 10 -11 25 -20 34 -20 9 0 25 -7 35 -15 11 -8 27 -15 37 -15 9 0 22
-7 29 -15 7 -8 22 -15 34 -15 12 0 27 -9 34 -20 7 -11 22 -20 35 -20 12 0 31
-6 42 -14 11 -7 35 -17 52 -21 18 -3 33 -12 33 -20 0 -7 15 -15 33 -19 30 -6
58 -17 130 -52 16 -8 36 -14 45 -14 9 0 28 -9 42 -20 14 -11 34 -20 46 -20 11
0 29 -7 40 -15 10 -8 36 -15 56 -15 24 0 44 -7 56 -21 11 -11 36 -22 55 -24
20 -1 46 -10 59 -19 12 -9 43 -16 68 -16 25 -1 56 -7 70 -15 14 -8 43 -14 64
-15 22 0 47 -7 58 -17 11 -10 42 -18 76 -21 31 -2 63 -9 71 -16 7 -6 52 -14
99 -17 63 -5 87 -11 94 -23 7 -12 24 -16 69 -16 33 0 93 -7 134 -15 64 -14
213 -25 545 -42 52 -2 99 -9 105 -14 12 -12 88 -12 100 0 6 5 55 12 110 14
311 15 499 29 515 37 10 5 65 13 122 16 75 5 106 11 115 22 9 10 37 16 90 20
43 2 84 9 92 15 7 6 42 14 77 18 37 4 72 13 83 23 10 9 35 16 57 16 21 1 50 7
64 15 14 8 44 14 68 15 23 0 59 9 79 20 21 11 45 18 54 15 10 -4 29 5 45 20
15 14 39 25 54 25 15 0 41 7 56 15 16 8 38 15 50 15 11 0 29 9 39 20 10 11 26
20 36 20 18 0 66 18 122 46 16 8 37 14 47 14 11 0 27 9 37 19 10 11 31 22 47
25 16 3 36 12 46 21 9 8 29 15 43 15 16 0 32 8 39 20 7 11 22 20 34 20 12 0
27 7 34 15 7 8 20 15 29 15 10 0 26 7 37 15 10 8 26 15 35 15 9 0 24 9 34 20
10 11 23 20 30 20 7 0 22 9 35 20 13 11 31 20 41 20 10 0 24 8 31 18 7 9 35
28 61 42 69 36 85 45 104 62 10 9 41 27 70 42 29 14 56 31 60 38 8 14 35 32
68 47 11 5 45 30 75 55 30 25 60 46 66 46 6 0 20 10 31 23 11 12 46 42 77 66
31 24 56 48 56 52 0 5 6 9 14 9 7 0 55 40 107 89 52 49 109 101 127 117 82 71
450 467 460 495 4 9 30 39 91 104 16 17 32 40 35 51 4 12 22 38 41 57 19 20
35 39 35 43 0 3 14 23 30 44 17 21 30 42 30 47 0 4 9 14 20 21 11 7 20 19 20
27 0 8 15 35 33 61 54 78 66 98 78 127 6 15 15 27 20 27 5 0 9 8 9 18 0 9 9
23 20 30 11 7 20 20 20 31 0 10 9 28 20 41 11 13 20 30 20 39 0 9 9 22 20 29
11 7 20 20 20 30 0 10 7 27 15 38 8 10 15 26 15 35 0 9 7 22 15 29 8 7 15 22
15 34 0 12 9 27 20 34 12 7 20 23 20 41 0 16 7 34 15 41 8 7 15 21 15 30 0 29
11 50 26 50 8 0 14 8 14 18 0 9 9 34 20 55 11 20 20 48 20 62 0 13 8 29 18 34
13 7 17 18 15 38 -3 20 2 34 16 47 13 12 21 31 21 51 0 18 7 38 15 45 8 7 15
29 15 49 0 25 6 40 20 49 13 8 20 23 20 45 0 17 7 45 15 61 8 16 18 53 21 82
4 30 11 54 15 54 5 0 9 7 9 15 0 8 4 15 8 15 4 0 6 16 4 35 -3 25 1 42 14 56
13 14 19 41 22 87 2 37 9 73 16 81 6 8 13 49 17 91 3 50 11 83 21 93 10 11 17
45 21 114 3 54 10 112 16 128 5 17 14 106 19 200 5 93 14 171 18 172 5 2 7 25
6 53 -3 32 0 50 7 50 8 0 11 59 11 190 0 131 -3 190 -11 190 -7 0 -10 18 -7
50 1 28 -1 51 -6 53 -4 1 -13 79 -18 172 -5 94 -13 184 -19 200 -5 17 -12 75
-16 130 -4 75 -9 103 -22 113 -11 9 -17 34 -19 90 -2 42 -9 83 -15 91 -6 7
-14 44 -18 82 -4 45 -12 76 -24 89 -12 13 -16 30 -13 55 2 19 0 35 -4 35 -4 0
-8 7 -8 15 0 8 -4 15 -9 15 -4 0 -11 24 -15 54 -3 29 -13 66 -21 82 -8 16 -15
40 -15 54 0 14 -9 33 -20 43 -14 11 -20 29 -20 56 0 22 -6 44 -15 51 -8 7 -15
29 -15 50 0 25 -7 43 -21 56 -13 12 -19 27 -16 42 3 15 -2 26 -14 33 -11 5
-19 21 -19 34 0 14 -9 42 -20 62 -11 21 -20 46 -20 55 0 10 -9 23 -20 30 -11
7 -20 22 -20 34 0 12 -7 27 -15 34 -8 7 -15 25 -15 41 0 18 -8 34 -20 41 -11
7 -20 22 -20 34 0 12 -7 27 -15 34 -8 7 -15 20 -15 29 0 9 -7 25 -15 35 -8 11
-15 28 -15 37 0 10 -5 21 -11 25 -6 3 -198 -181 -449 -431z"/>
<path d="M6460 7084 c-99 -8 -210 -27 -210 -35 0 -5 -13 -9 -29 -9 -16 0 -42
-5 -58 -11 -15 -7 -46 -15 -68 -20 -76 -15 -160 -41 -175 -54 -8 -7 -30 -16
-47 -20 -18 -3 -52 -17 -75 -31 -24 -13 -70 -38 -103 -55 -88 -45 -103 -54
-123 -72 -10 -10 -23 -17 -29 -17 -5 0 -18 -9 -28 -20 -10 -11 -23 -20 -29
-20 -6 0 -24 -14 -40 -30 -16 -17 -34 -30 -39 -30 -31 0 -272 -234 -1402
-1361 -687 -686 -1274 -1269 -1304 -1296 -30 -26 -69 -62 -87 -79 -17 -17 -39
-34 -48 -37 -9 -4 -16 -11 -16 -17 0 -13 -49 -60 -61 -60 -5 0 -8 -4 -6 -8 3
-10 -81 -92 -94 -92 -5 0 -9 -4 -9 -8 0 -13 -56 -72 -68 -72 -7 0 -12 -7 -12
-15 0 -9 -7 -18 -15 -21 -8 -4 -15 -11 -15 -18 0 -11 142 -116 158 -116 4 0
19 -11 32 -25 13 -14 30 -25 37 -25 7 0 32 -12 56 -27 52 -34 128 -73 143 -73
6 0 23 -9 37 -20 14 -11 34 -20 44 -20 11 0 28 -7 39 -15 10 -8 28 -15 39 -15
12 0 46 -9 78 -20 31 -11 70 -20 87 -20 17 0 39 -9 50 -20 17 -17 34 -20 103
-20 45 -1 100 -7 122 -15 58 -21 568 -21 605 0 14 8 51 14 82 15 54 0 108 15
108 30 0 4 26 10 58 13 32 4 72 13 88 22 16 8 37 15 46 15 14 0 52 16 98 42 8
4 26 13 40 19 14 6 37 17 52 25 14 8 32 14 39 14 7 0 21 7 31 17 19 17 31 25
98 61 23 13 52 32 64 43 11 11 57 47 100 80 99 74 457 427 1964 1932 l1192
1191 -37 33 c-21 18 -42 36 -48 40 -25 20 -121 79 -173 105 -31 16 -68 36 -82
43 -34 20 -117 55 -128 55 -5 0 -15 6 -21 14 -7 8 -31 18 -54 21 -23 4 -54 14
-69 21 -15 8 -42 14 -60 14 -18 1 -44 7 -58 15 -14 8 -39 14 -56 15 -16 0 -34
4 -40 9 -21 20 -154 33 -384 36 -135 1 -265 1 -290 -1z"/>
</g>
</svg>
